# xmcd CD database file
#
# Track frame offsets:
#	150
#	28730
#	58153
#	82570
#	116183
#	130393
#	153650
#	178160
#	211125
#
# Disc length: 3227 seconds
#
# Revision: 0
# Processed by: cddbd v1.4PL0 Copyright (c) Steve Scherf et al.
# Submitted via: CDex 1.50
#
DISCID=7a0c9909
DTITLE=Duke Jordan - Osaka concert Vol. 1
DYEAR=1976
DGENRE=Jazz
TTITLE0=Subway blues
TTITLE1=Flight to Jordan
TTITLE2=Lady Dingbat
TTITLE3=Night train to Snekkersten
TTITLE4=Hymn to peace
TTITLE5=Embraceable you
TTITLE6=W'utless
TTITLE7=Scotch blues
TTITLE8=Jordu
EXTD=YEAR: 1976
EXTT0=
EXTT1=
EXTT2=
EXTT3=
EXTT4=
EXTT5=
EXTT6=
EXTT7=
EXTT8=
PLAYORDER=
